<svg xmlns="http://www.w3.org/2000/svg" xmlns:svg="http://www.w3.org/2000/svg" id="svg2" width="400" height="400" version="1.1" viewBox="0 0 375 375"><metadata id="metadata7"/><g id="layer1" transform="translate(0,-677.36222)"><path style="color:#000;font-style:normal;font-variant:normal;font-weight:400;font-stretch:normal;font-size:medium;line-height:normal;font-family:sans-serif;text-indent:0;text-align:start;text-decoration:none;text-decoration-line:none;text-decoration-style:solid;text-decoration-color:#000;letter-spacing:normal;word-spacing:normal;text-transform:none;direction:ltr;block-progression:tb;writing-mode:lr-tb;baseline-shift:baseline;text-anchor:start;white-space:normal;clip-rule:nonzero;display:inline;overflow:visible;visibility:visible;opacity:1;isolation:auto;mix-blend-mode:normal;color-interpolation:sRGB;color-interpolation-filters:linearRGB;solid-color:#000;solid-opacity:1;fill:#000;fill-opacity:1;fill-rule:nonzero;stroke:none;stroke-width:10;stroke-linecap:round;stroke-linejoin:miter;stroke-miterlimit:4;stroke-dasharray:none;stroke-dashoffset:0;stroke-opacity:1;color-rendering:auto;image-rendering:auto;shape-rendering:auto;text-rendering:auto;enable-background:accumulate" id="path4146" d="m 187.5,679.86223 a 185.00057,185.00057 0 0 0 -184.9999998,185 A 185.00057,185.00057 0 0 0 187.5,1049.8622 a 185.00057,185.00057 0 0 0 185,-184.99997 185.00057,185.00057 0 0 0 -185,-185 z m -85.90632,78.87528 a 20.232308,20.232308 0 0 1 14.5181,6.13144 L 187.5,836.25719 258.88825,764.86895 a 20.232308,20.232308 0 0 1 13.90867,-6.12106 20.232308,20.232308 0 0 1 14.70258,34.73023 l -71.3903,71.38825 71.3903,71.39029 a 20.232308,20.232308 0 1 1 -28.61125,28.60921 L 187.5,893.47763 116.11178,964.86587 A 20.232308,20.232308 0 1 1 87.500505,936.25666 L 158.89083,864.86637 87.500505,793.47812 a 20.232308,20.232308 0 0 1 14.093175,-34.74061 z"/></g></svg>